<?xml version="1.0" encoding="UTF-8"?>
<svg width="230mm" height="75mm" version="1.1" viewBox="0 0 230 75" xmlns="http://www.w3.org/2000/svg">
    <g transform="matrix(1.1161 0 0 1.1178 106.23 -139.53)" fill="none" stroke="#000" stroke-linecap="round" stroke-linejoin="round" stroke-width="2.0593">
        <path d="m-59.134 171.72-4.2333 7.3323 4.2333 7.3324 4.2333-7.3324z"/>
        <path d="m-83.083 130.24h-8.4667l25.665 44.452 4.2333-7.3323z"/>
        <path d="m-35.186 130.24h8.4667l-25.665 44.452-4.2333-7.3323z"/>
    </g>
    <g transform="scale(.99924 1.0008)" stroke-width=".26458" aria-label="enabili">
        <path d="m79.369 67.113q-5.334 2.5837-10.168 2.5837-4.4172 0-7.4176-2.4586-3.2087-2.6253-3.2087-6.8759 0-4.4589 2.9587-7.0425 2.9587-2.5837 7.5009-2.5837 4.0422 0 6.8967 2.3336 2.8545 2.3336 2.8545 5.6674v2.2086h-17.669q0.25003 3.0004 2.667 4.7089 2.1669 1.5419 5.334 1.5419 4.3339 0 9.3762-2.417zm-3.0837-8.6678q-0.25003-2.292-2.3128-3.7505-2.0628-1.4585-4.8964-1.4585-2.917 0-4.959 1.2502-2.2086 1.3752-2.792 3.9588z"/>
        <path d="m105.41 69.28h-9.5845v-2.5003h3.5421v-8.7928q0-2.3336-0.79176-3.4588-0.95845-1.2918-3.2087-1.2918-2.542 0-7.1676 3.7921v9.7512h3.5421v2.5003h-9.6679v-2.5003h3.5838v-13.127h-3.5838v-2.5003h6.1258v2.7503q3.3338-3.2087 7.5843-3.2087 6.1258 0 6.1258 5.8757v10.21h3.5004z"/>
        <path d="m129.75 69.28h-6.2924v-2.917q-3.4588 3.5421-8.251 3.5421-2.792 0-4.7923-1.5835-2.1669-1.7085-2.1669-4.4172 0-2.9587 2.7087-4.8756 2.417-1.7502 5.5007-1.7502 4.8339 0 7.0009 0.54173v-1.2085q0-3.7088-5.084-3.7088-3.4171 0-7.2092 1.7502l-1.0001-2.292q4.6256-1.8752 8.2927-1.8752 3.042 0 5.084 1.2085 2.4586 1.4585 2.4586 4.2922v10.876h3.7505zm-6.2924-6.4175v-2.5003q-4.5422-0.54174-5.4174-0.54174-7.2926 0-7.2926 4.2089 0 1.5002 1.7086 2.5003 1.5002 0.87511 3.1254 0.87511 2.2086 0 4.4589-1.3752 2.0419-1.2502 3.4171-3.1671z"/>
        <path d="m138.17 60.195q0 3.0004 2.0836 5.1048t5.084 2.1044q3.0004 0 5.1048-2.1044t2.1044-5.1048q0-2.9587-2.1253-5.0631-2.1253-2.1044-5.084-2.1044-3.0004 0-5.084 2.1044t-2.0836 5.0631zm-2.3336-15.002-4.0422 0.2917-0.16669-2.3753 6.7092-0.45839v10.96q2.8754-3.0004 7.0009-3.0004 4.0422 0 6.855 2.8129 2.8129 2.8129 2.8129 6.855t-2.8129 6.855q-2.8128 2.8129-6.855 2.8129-4.1255 0-7.0009-3.0004v2.3336h-6.0841v-2.5003h3.5838z"/>
        <path d="m177.51 69.28h-17.502v-2.5003h7.5009v-13.127h-6.2508v-2.5003h8.7511v15.627h7.5009zm-8.7511-21.669q-1.0418 0-1.7711-0.72926t-0.72926-1.7711 0.72926-1.7711q0.72926-0.72926 1.7711-0.72926 1.0418 0 1.771 0.72926 0.72926 0.72926 0.72926 1.7711t-0.72926 1.7711-1.771 0.72926z"/>
        <path d="m202.51 69.28h-17.502v-2.5003h7.5009v-21.544l-6.9175 0.45839-0.20836-2.417 9.6262-0.62508v24.128h7.5009z"/>
        <path d="m227.51 69.28h-17.502v-2.5003h7.5009v-13.127h-6.2508v-2.5003h8.7511v15.627h7.5009zm-8.7511-21.669q-1.0418 0-1.7711-0.72926t-0.72926-1.7711 0.72926-1.7711q0.72926-0.72926 1.7711-0.72926 1.0418 0 1.771 0.72926 0.72926 0.72926 0.72926 1.7711t-0.72926 1.7711-1.771 0.72926z"/>
    </g>
</svg>
