<?xml version="1.0" encoding="UTF-8"?>
<svg id="keyboard" width="277.89mm" height="110.13mm" version="1.1" viewBox="0 0 277.89 110.13" xmlns="http://www.w3.org/2000/svg">
    <g transform="translate(292.09 -511.8)">
        <path d="m-269.79 517.18-17.06 79.592 111.18 19.953h45.067l111.17-19.952-17.094-79.784z" fill="none" stroke="#7e7e7e" stroke-width=".39687"/>
        <g>
            <g transform="translate(64.485 10.087)">
                <rect transform="rotate(12)" x="-217.22" y="567.33" width="17.901" height="17.901" rx=".65319" ry=".65319" fill="#ececec" stroke="#7e7e7e" stroke-linecap="round" stroke-linejoin="round" stroke-width=".1989"/>
                <rect transform="rotate(12)" x="-214.39" y="568.36" width="12.234" height="12.234" rx=".69032" ry=".69032" fill="#fff" class='key'/>
            </g>
            <g transform="translate(60.525 28.721)">
                <rect transform="rotate(12)" x="-217.22" y="567.33" width="17.901" height="17.901" rx=".65319" ry=".65319" fill="#ececec" stroke="#7e7e7e" stroke-linecap="round" stroke-linejoin="round" stroke-width=".1989"/>
                <rect transform="rotate(12)" x="-214.39" y="568.36" width="12.234" height="12.234" rx=".69032" ry=".69032" fill="#fff" class='key'/>
            </g>
            <g transform="translate(56.564 47.355)">
                <rect transform="rotate(12)" x="-217.22" y="567.33" width="17.901" height="17.901" rx=".65319" ry=".65319" fill="#ececec" stroke="#7e7e7e" stroke-linecap="round" stroke-linejoin="round" stroke-width=".1989"/>
                <rect transform="rotate(12)" x="-214.39" y="568.36" width="12.234" height="12.234" rx=".69032" ry=".69032" fill="#fff" class='key'/>
            </g>
            <g transform="translate(52.603 65.988)">
                <rect transform="rotate(12)" x="-217.22" y="567.33" width="17.901" height="17.901" rx=".65319" ry=".65319" fill="#ececec" stroke="#7e7e7e" stroke-linecap="round" stroke-linejoin="round" stroke-width=".1989"/>
                <rect transform="rotate(12)" x="-214.39" y="568.36" width="12.234" height="12.234" rx=".69032" ry=".69032" fill="#fff" class='key'/>
            </g>
            <g transform="translate(19.257 1.0263)">
                <g transform="translate(64.485 10.087)">
                    <rect transform="rotate(12)" x="-217.22" y="567.33" width="17.901" height="17.901" rx=".65319" ry=".65319" fill="#ececec" stroke="#7e7e7e" stroke-linecap="round" stroke-linejoin="round" stroke-width=".1989"/>
                    <rect transform="rotate(12)" x="-214.39" y="568.36" width="12.234" height="12.234" rx=".69032" ry=".69032" fill="#fff" class='key'/>
                </g>
                <g transform="translate(60.525 28.721)">
                    <rect transform="rotate(12)" x="-217.22" y="567.33" width="17.901" height="17.901" rx=".65319" ry=".65319" fill="#ececec" stroke="#7e7e7e" stroke-linecap="round" stroke-linejoin="round" stroke-width=".1989"/>
                    <rect transform="rotate(12)" x="-214.39" y="568.36" width="12.234" height="12.234" rx=".69032" ry=".69032" fill="#fff" class='key'/>
                </g>
                <g transform="translate(56.564 47.355)">
                    <rect transform="rotate(12)" x="-217.22" y="567.33" width="17.901" height="17.901" rx=".65319" ry=".65319" fill="#ececec" stroke="#7e7e7e" stroke-linecap="round" stroke-linejoin="round" stroke-width=".1989"/>
                    <rect transform="rotate(12)" x="-214.39" y="568.36" width="12.234" height="12.234" rx=".69032" ry=".69032" fill="#fff" class='key'/>
                </g>
                <g transform="translate(52.603 65.988)">
                    <rect transform="rotate(12)" x="-217.22" y="567.33" width="17.901" height="17.901" rx=".65319" ry=".65319" fill="#ececec" stroke="#7e7e7e" stroke-linecap="round" stroke-linejoin="round" stroke-width=".1989"/>
                    <rect transform="rotate(12)" x="-214.39" y="568.36" width="12.234" height="12.234" rx=".69032" ry=".69032" fill="#fff" class='key'/>
                </g>
            </g>
            <g transform="translate(38.515 2.0525)">
                <g transform="translate(64.485 10.087)">
                    <rect transform="rotate(12)" x="-217.22" y="567.33" width="17.901" height="17.901" rx=".65319" ry=".65319" fill="#ececec" stroke="#7e7e7e" stroke-linecap="round" stroke-linejoin="round" stroke-width=".1989"/>
                    <rect transform="rotate(12)" x="-214.39" y="568.36" width="12.234" height="12.234" rx=".69032" ry=".69032" fill="#fff" class='key'/>
                </g>
                <g transform="translate(60.525 28.721)">
                    <rect transform="rotate(12)" x="-217.22" y="567.33" width="17.901" height="17.901" rx=".65319" ry=".65319" fill="#ececec" stroke="#7e7e7e" stroke-linecap="round" stroke-linejoin="round" stroke-width=".1989"/>
                    <rect transform="rotate(12)" x="-214.39" y="568.36" width="12.234" height="12.234" rx=".69032" ry=".69032" fill="#fff" class='key'/>
                </g>
                <g transform="translate(56.564 47.355)">
                    <rect transform="rotate(12)" x="-217.22" y="567.33" width="17.901" height="17.901" rx=".65319" ry=".65319" fill="#ececec" stroke="#7e7e7e" stroke-linecap="round" stroke-linejoin="round" stroke-width=".1989"/>
                    <rect transform="rotate(12)" x="-214.39" y="568.36" width="12.234" height="12.234" rx=".69032" ry=".69032" fill="#fff" class='key'/>
                </g>
                <g transform="translate(52.603 65.988)">
                    <rect transform="rotate(12)" x="-217.22" y="567.33" width="17.901" height="17.901" rx=".65319" ry=".65319" fill="#ececec" stroke="#7e7e7e" stroke-linecap="round" stroke-linejoin="round" stroke-width=".1989"/>
                    <rect transform="rotate(12)" x="-214.39" y="568.36" width="12.234" height="12.234" rx=".69032" ry=".69032" fill="#fff" class='key'/>
                </g>
            </g>
            <g transform="translate(57.772 3.0788)">
                <g transform="translate(64.485 10.087)">
                    <rect transform="rotate(12)" x="-217.22" y="567.33" width="17.901" height="17.901" rx=".65319" ry=".65319" fill="#ececec" stroke="#7e7e7e" stroke-linecap="round" stroke-linejoin="round" stroke-width=".1989"/>
                    <rect transform="rotate(12)" x="-214.39" y="568.36" width="12.234" height="12.234" rx=".69032" ry=".69032" fill="#fff" class='key'/>
                </g>
                <g transform="translate(60.525 28.721)">
                    <rect transform="rotate(12)" x="-217.22" y="567.33" width="17.901" height="17.901" rx=".65319" ry=".65319" fill="#ececec" stroke="#7e7e7e" stroke-linecap="round" stroke-linejoin="round" stroke-width=".1989"/>
                    <rect transform="rotate(12)" x="-214.39" y="568.36" width="12.234" height="12.234" rx=".69032" ry=".69032" fill="#fff" class='key'/>
                </g>
                <g transform="translate(56.564 47.355)">
                    <rect transform="rotate(12)" x="-217.22" y="567.33" width="17.901" height="17.901" rx=".65319" ry=".65319" fill="#ececec" stroke="#7e7e7e" stroke-linecap="round" stroke-linejoin="round" stroke-width=".1989"/>
                    <rect transform="rotate(12)" x="-214.39" y="568.36" width="12.234" height="12.234" rx=".69032" ry=".69032" fill="#fff" class='key'/>
                </g>
                <g transform="translate(52.603 65.988)">
                    <rect transform="rotate(12)" x="-217.22" y="567.33" width="17.901" height="17.901" rx=".65319" ry=".65319" fill="#ececec" stroke="#7e7e7e" stroke-linecap="round" stroke-linejoin="round" stroke-width=".1989"/>
                    <rect transform="rotate(12)" x="-214.39" y="568.36" width="12.234" height="12.234" rx=".69032" ry=".69032" fill="#fff" class='key'/>
                </g>
            </g>
            <g transform="translate(75.782 9.974)">
                <g transform="translate(64.485 10.087)">
                    <rect transform="rotate(12)" x="-217.22" y="567.33" width="17.901" height="17.901" rx=".65319" ry=".65319" fill="#ececec" stroke="#7e7e7e" stroke-linecap="round" stroke-linejoin="round" stroke-width=".1989"/>
                    <rect transform="rotate(12)" x="-214.39" y="568.36" width="12.234" height="12.234" rx=".69032" ry=".69032" fill="#fff" class='key'/>
                </g>
                <g transform="translate(60.525 28.721)">
                    <rect transform="rotate(12)" x="-217.22" y="567.33" width="17.901" height="17.901" rx=".65319" ry=".65319" fill="#ececec" stroke="#7e7e7e" stroke-linecap="round" stroke-linejoin="round" stroke-width=".1989"/>
                    <rect transform="rotate(12)" x="-214.39" y="568.36" width="12.234" height="12.234" rx=".69032" ry=".69032" fill="#fff" class='key'/>
                </g>
                <g transform="translate(56.564 47.355)">
                    <rect transform="rotate(12)" x="-217.22" y="567.33" width="17.901" height="17.901" rx=".65319" ry=".65319" fill="#ececec" stroke="#7e7e7e" stroke-linecap="round" stroke-linejoin="round" stroke-width=".1989"/>
                    <rect transform="rotate(12)" x="-214.39" y="568.36" width="12.234" height="12.234" rx=".69032" ry=".69032" fill="#fff" class='key'/>
                </g>
                <g transform="translate(52.603 65.988)">
                    <rect transform="rotate(12)" x="-217.22" y="567.33" width="17.901" height="17.901" rx=".65319" ry=".65319" fill="#ececec" stroke="#7e7e7e" stroke-linecap="round" stroke-linejoin="round" stroke-width=".1989"/>
                    <rect transform="rotate(12)" x="-214.39" y="568.36" width="12.234" height="12.234" rx=".69032" ry=".69032" fill="#fff" class='key'/>
                </g>
            </g>
            <g transform="translate(93.792 16.869)">
                <g transform="translate(64.485 10.087)">
                    <rect transform="rotate(12)" x="-217.22" y="567.33" width="17.901" height="17.901" rx=".65319" ry=".65319" fill="#ececec" stroke="#7e7e7e" stroke-linecap="round" stroke-linejoin="round" stroke-width=".1989"/>
                    <rect transform="rotate(12)" x="-214.39" y="568.36" width="12.234" height="12.234" rx=".69032" ry=".69032" fill="#fff" class='key'/>
                </g>
                <g transform="translate(60.525 28.721)">
                    <rect transform="rotate(12)" x="-217.22" y="567.33" width="17.901" height="17.901" rx=".65319" ry=".65319" fill="#ececec" stroke="#7e7e7e" stroke-linecap="round" stroke-linejoin="round" stroke-width=".1989"/>
                    <rect transform="rotate(12)" x="-214.39" y="568.36" width="12.234" height="12.234" rx=".69032" ry=".69032" fill="#fff" class='key'/>
                </g>
                <g transform="translate(56.564 47.355)">
                    <rect transform="rotate(12)" x="-217.22" y="567.33" width="17.901" height="17.901" rx=".65319" ry=".65319" fill="#ececec" stroke="#7e7e7e" stroke-linecap="round" stroke-linejoin="round" stroke-width=".1989"/>
                    <rect transform="rotate(12)" x="-214.39" y="568.36" width="12.234" height="12.234" rx=".69032" ry=".69032" fill="#fff" class='key'/>
                </g>
                <g transform="translate(52.603 65.988)">
                    <rect transform="rotate(12)" x="-217.22" y="567.33" width="17.901" height="17.901" rx=".65319" ry=".65319" fill="#ececec" stroke="#7e7e7e" stroke-linecap="round" stroke-linejoin="round" stroke-width=".1989"/>
                    <rect transform="rotate(12)" x="-214.39" y="568.36" width="12.234" height="12.234" rx=".69032" ry=".69032" fill="#fff" class='key'/>
                </g>
            </g>
            <g transform="translate(248.74 8.4741)">
                <rect transform="matrix(-.97815 .20791 .20791 .97815 0 0)" x="389.09" y="440.11" width="17.901" height="17.901" rx=".65319" ry=".65319" fill="#ececec" stroke="#7e7e7e" stroke-linecap="round" stroke-linejoin="round" stroke-width=".1989"/>
                <rect transform="matrix(-.97815 .20791 .20791 .97815 0 0)" x="391.92" y="441.13" width="12.234" height="12.234" rx=".69032" ry=".69032" fill="#fff" class='key' />
            </g>
            <g transform="translate(252.7 27.108)">
                <rect transform="matrix(-.97815 .20791 .20791 .97815 0 0)" x="389.09" y="440.11" width="17.901" height="17.901" rx=".65319" ry=".65319" fill="#ececec" stroke="#7e7e7e" stroke-linecap="round" stroke-linejoin="round" stroke-width=".1989"/>
                <rect transform="matrix(-.97815 .20791 .20791 .97815 0 0)" x="391.92" y="441.13" width="12.234" height="12.234" rx=".69032" ry=".69032" fill="#fff" class='key' />
            </g>
            <g transform="translate(256.67 45.742)">
                <rect transform="matrix(-.97815 .20791 .20791 .97815 0 0)" x="389.09" y="440.11" width="17.901" height="17.901" rx=".65319" ry=".65319" fill="#ececec" stroke="#7e7e7e" stroke-linecap="round" stroke-linejoin="round" stroke-width=".1989"/>
                <rect transform="matrix(-.97815 .20791 .20791 .97815 0 0)" x="391.92" y="441.13" width="12.234" height="12.234" rx=".69032" ry=".69032" fill="#fff" class='key' />
            </g>
            <g transform="translate(260.63 64.375)">
                <rect transform="matrix(-.97815 .20791 .20791 .97815 0 0)" x="389.09" y="440.11" width="17.901" height="17.901" rx=".65319" ry=".65319" fill="#ececec" stroke="#7e7e7e" stroke-linecap="round" stroke-linejoin="round" stroke-width=".1989"/>
                <rect transform="matrix(-.97815 .20791 .20791 .97815 0 0)" x="391.92" y="441.13" width="12.234" height="12.234" rx=".69032" ry=".69032" fill="#fff" class='key' />
            </g>
            <g transform="translate(-19.257 1.0263)">
                <g transform="translate(248.74 8.4741)">
                    <rect transform="matrix(-.97815 .20791 .20791 .97815 0 0)" x="389.09" y="440.11" width="17.901" height="17.901" rx=".65319" ry=".65319" fill="#ececec" stroke="#7e7e7e" stroke-linecap="round" stroke-linejoin="round" stroke-width=".1989"/>
                    <rect transform="matrix(-.97815 .20791 .20791 .97815 0 0)" x="391.92" y="441.13" width="12.234" height="12.234" rx=".69032" ry=".69032" fill="#fff" class='key' />
                </g>
                <g transform="translate(252.7 27.108)">
                    <rect transform="matrix(-.97815 .20791 .20791 .97815 0 0)" x="389.09" y="440.11" width="17.901" height="17.901" rx=".65319" ry=".65319" fill="#ececec" stroke="#7e7e7e" stroke-linecap="round" stroke-linejoin="round" stroke-width=".1989"/>
                    <rect transform="matrix(-.97815 .20791 .20791 .97815 0 0)" x="391.92" y="441.13" width="12.234" height="12.234" rx=".69032" ry=".69032" fill="#fff" class='key' />
                </g>
                <g transform="translate(256.67 45.742)">
                    <rect transform="matrix(-.97815 .20791 .20791 .97815 0 0)" x="389.09" y="440.11" width="17.901" height="17.901" rx=".65319" ry=".65319" fill="#ececec" stroke="#7e7e7e" stroke-linecap="round" stroke-linejoin="round" stroke-width=".1989"/>
                    <rect transform="matrix(-.97815 .20791 .20791 .97815 0 0)" x="391.92" y="441.13" width="12.234" height="12.234" rx=".69032" ry=".69032" fill="#fff" class='key' />
                </g>
                <g transform="translate(260.63 64.375)">
                    <rect transform="matrix(-.97815 .20791 .20791 .97815 0 0)" x="389.09" y="440.11" width="17.901" height="17.901" rx=".65319" ry=".65319" fill="#ececec" stroke="#7e7e7e" stroke-linecap="round" stroke-linejoin="round" stroke-width=".1989"/>
                    <rect transform="matrix(-.97815 .20791 .20791 .97815 0 0)" x="391.92" y="441.13" width="12.234" height="12.234" rx=".69032" ry=".69032" fill="#fff" class='key' />
                </g>
            </g>
            <g transform="translate(-38.515 2.0525)">
                <g transform="translate(248.74 8.4741)">
                    <rect transform="matrix(-.97815 .20791 .20791 .97815 0 0)" x="389.09" y="440.11" width="17.901" height="17.901" rx=".65319" ry=".65319" fill="#ececec" stroke="#7e7e7e" stroke-linecap="round" stroke-linejoin="round" stroke-width=".1989"/>
                    <rect transform="matrix(-.97815 .20791 .20791 .97815 0 0)" x="391.92" y="441.13" width="12.234" height="12.234" rx=".69032" ry=".69032" fill="#fff" class='key' />
                </g>
                <g transform="translate(252.7 27.108)">
                    <rect transform="matrix(-.97815 .20791 .20791 .97815 0 0)" x="389.09" y="440.11" width="17.901" height="17.901" rx=".65319" ry=".65319" fill="#ececec" stroke="#7e7e7e" stroke-linecap="round" stroke-linejoin="round" stroke-width=".1989"/>
                    <rect transform="matrix(-.97815 .20791 .20791 .97815 0 0)" x="391.92" y="441.13" width="12.234" height="12.234" rx=".69032" ry=".69032" fill="#fff" class='key' />
                </g>
                <g transform="translate(256.67 45.742)">
                    <rect transform="matrix(-.97815 .20791 .20791 .97815 0 0)" x="389.09" y="440.11" width="17.901" height="17.901" rx=".65319" ry=".65319" fill="#ececec" stroke="#7e7e7e" stroke-linecap="round" stroke-linejoin="round" stroke-width=".1989"/>
                    <rect transform="matrix(-.97815 .20791 .20791 .97815 0 0)" x="391.92" y="441.13" width="12.234" height="12.234" rx=".69032" ry=".69032" fill="#fff" class='key' />
                </g>
                <g transform="translate(260.63 64.375)">
                    <rect transform="matrix(-.97815 .20791 .20791 .97815 0 0)" x="389.09" y="440.11" width="17.901" height="17.901" rx=".65319" ry=".65319" fill="#ececec" stroke="#7e7e7e" stroke-linecap="round" stroke-linejoin="round" stroke-width=".1989"/>
                    <rect transform="matrix(-.97815 .20791 .20791 .97815 0 0)" x="391.92" y="441.13" width="12.234" height="12.234" rx=".69032" ry=".69032" fill="#fff" class='key' />
                </g>
            </g>
            <g transform="translate(-57.772 3.0788)">
                <g transform="translate(248.74 8.4741)">
                    <rect transform="matrix(-.97815 .20791 .20791 .97815 0 0)" x="389.09" y="440.11" width="17.901" height="17.901" rx=".65319" ry=".65319" fill="#ececec" stroke="#7e7e7e" stroke-linecap="round" stroke-linejoin="round" stroke-width=".1989"/>
                    <rect transform="matrix(-.97815 .20791 .20791 .97815 0 0)" x="391.92" y="441.13" width="12.234" height="12.234" rx=".69032" ry=".69032" fill="#fff" class='key' />
                </g>
                <g transform="translate(252.7 27.108)">
                    <rect transform="matrix(-.97815 .20791 .20791 .97815 0 0)" x="389.09" y="440.11" width="17.901" height="17.901" rx=".65319" ry=".65319" fill="#ececec" stroke="#7e7e7e" stroke-linecap="round" stroke-linejoin="round" stroke-width=".1989"/>
                    <rect transform="matrix(-.97815 .20791 .20791 .97815 0 0)" x="391.92" y="441.13" width="12.234" height="12.234" rx=".69032" ry=".69032" fill="#fff" class='key' />
                </g>
                <g transform="translate(256.67 45.742)">
                    <rect transform="matrix(-.97815 .20791 .20791 .97815 0 0)" x="389.09" y="440.11" width="17.901" height="17.901" rx=".65319" ry=".65319" fill="#ececec" stroke="#7e7e7e" stroke-linecap="round" stroke-linejoin="round" stroke-width=".1989"/>
                    <rect transform="matrix(-.97815 .20791 .20791 .97815 0 0)" x="391.92" y="441.13" width="12.234" height="12.234" rx=".69032" ry=".69032" fill="#fff" class='key' />
                </g>
                <g transform="translate(260.63 64.375)">
                    <rect transform="matrix(-.97815 .20791 .20791 .97815 0 0)" x="389.09" y="440.11" width="17.901" height="17.901" rx=".65319" ry=".65319" fill="#ececec" stroke="#7e7e7e" stroke-linecap="round" stroke-linejoin="round" stroke-width=".1989"/>
                    <rect transform="matrix(-.97815 .20791 .20791 .97815 0 0)" x="391.92" y="441.13" width="12.234" height="12.234" rx=".69032" ry=".69032" fill="#fff" class='key' />
                </g>
            </g>
            <g transform="translate(-75.782 9.974)">
                <g transform="translate(248.74 8.4741)">
                    <rect transform="matrix(-.97815 .20791 .20791 .97815 0 0)" x="389.09" y="440.11" width="17.901" height="17.901" rx=".65319" ry=".65319" fill="#ececec" stroke="#7e7e7e" stroke-linecap="round" stroke-linejoin="round" stroke-width=".1989"/>
                    <rect transform="matrix(-.97815 .20791 .20791 .97815 0 0)" x="391.92" y="441.13" width="12.234" height="12.234" rx=".69032" ry=".69032" fill="#fff" class='key' />
                </g>
                <g transform="translate(252.7 27.108)">
                    <rect transform="matrix(-.97815 .20791 .20791 .97815 0 0)" x="389.09" y="440.11" width="17.901" height="17.901" rx=".65319" ry=".65319" fill="#ececec" stroke="#7e7e7e" stroke-linecap="round" stroke-linejoin="round" stroke-width=".1989"/>
                    <rect transform="matrix(-.97815 .20791 .20791 .97815 0 0)" x="391.92" y="441.13" width="12.234" height="12.234" rx=".69032" ry=".69032" fill="#fff" class='key' />
                </g>
                <g transform="translate(256.67 45.742)">
                    <rect transform="matrix(-.97815 .20791 .20791 .97815 0 0)" x="389.09" y="440.11" width="17.901" height="17.901" rx=".65319" ry=".65319" fill="#ececec" stroke="#7e7e7e" stroke-linecap="round" stroke-linejoin="round" stroke-width=".1989"/>
                    <rect transform="matrix(-.97815 .20791 .20791 .97815 0 0)" x="391.92" y="441.13" width="12.234" height="12.234" rx=".69032" ry=".69032" fill="#fff" class='key' />
                </g>
                <g transform="translate(260.63 64.375)">
                    <rect transform="matrix(-.97815 .20791 .20791 .97815 0 0)" x="389.09" y="440.11" width="17.901" height="17.901" rx=".65319" ry=".65319" fill="#ececec" stroke="#7e7e7e" stroke-linecap="round" stroke-linejoin="round" stroke-width=".1989"/>
                    <rect transform="matrix(-.97815 .20791 .20791 .97815 0 0)" x="391.92" y="441.13" width="12.234" height="12.234" rx=".69032" ry=".69032" fill="#fff" class='key' />
                </g>
            </g>
            <g transform="translate(-93.792 16.869)">
                <g transform="translate(248.74 8.4741)">
                    <rect transform="matrix(-.97815 .20791 .20791 .97815 0 0)" x="389.09" y="440.11" width="17.901" height="17.901" rx=".65319" ry=".65319" fill="#ececec" stroke="#7e7e7e" stroke-linecap="round" stroke-linejoin="round" stroke-width=".1989"/>
                    <rect transform="matrix(-.97815 .20791 .20791 .97815 0 0)" x="391.92" y="441.13" width="12.234" height="12.234" rx=".69032" ry=".69032" fill="#fff" class='key' />
                </g>
                <g transform="translate(252.7 27.108)">
                    <rect transform="matrix(-.97815 .20791 .20791 .97815 0 0)" x="389.09" y="440.11" width="17.901" height="17.901" rx=".65319" ry=".65319" fill="#ececec" stroke="#7e7e7e" stroke-linecap="round" stroke-linejoin="round" stroke-width=".1989"/>
                    <rect transform="matrix(-.97815 .20791 .20791 .97815 0 0)" x="391.92" y="441.13" width="12.234" height="12.234" rx=".69032" ry=".69032" fill="#fff" class='key' />
                </g>
                <g transform="translate(256.67 45.742)">
                    <rect transform="matrix(-.97815 .20791 .20791 .97815 0 0)" x="389.09" y="440.11" width="17.901" height="17.901" rx=".65319" ry=".65319" fill="#ececec" stroke="#7e7e7e" stroke-linecap="round" stroke-linejoin="round" stroke-width=".1989"/>
                    <rect transform="matrix(-.97815 .20791 .20791 .97815 0 0)" x="391.92" y="441.13" width="12.234" height="12.234" rx=".69032" ry=".69032" fill="#fff" class='key' />
                </g>
                <g transform="translate(260.63 64.375)">
                    <rect transform="matrix(-.97815 .20791 .20791 .97815 0 0)" x="389.09" y="440.11" width="17.901" height="17.901" rx=".65319" ry=".65319" fill="#ececec" stroke="#7e7e7e" stroke-linecap="round" stroke-linejoin="round" stroke-width=".1989"/>
                    <rect transform="matrix(-.97815 .20791 .20791 .97815 0 0)" x="391.92" y="441.13" width="12.234" height="12.234" rx=".69032" ry=".69032" fill="#fff" class='key' />
                </g>
            </g>
        </g>
    </g>
</svg>
