<?xml version="1.0" encoding="UTF-8"?>
<svg id="logo" version="1.1" viewBox="0 0 235.1 68.73" xmlns="http://www.w3.org/2000/svg"><g id="logo-v" transform="translate(-12.19,-227.7)" fill="none" stroke="#333" stroke-linecap="round"><path id="path2" d="m51.14 270.7-5.19 9.002 5.19 9.002 5.19-9.002z" stroke-width="2.789"/><path id="path4" d="m72.2 234.2h10.36l-22.58 39.14-5.193-8.995z" stroke-miterlimit="3" stroke-width="2.918"/><path id="path6" d="m30.08 234.2h-10.36l22.58 39.14 5.193-8.995z" stroke-width="2.918"/></g><g id="text" transform="scale(.9992 1.001)" fill="#333" stroke-width=".2646" aria-label="enabili"><path id="path4765" d="m53.81 52.79q0-5.067 3.362-8.003t8.524-2.936q4.594 0 7.838 2.652t3.244 6.441v2.51h-20.08q0.2841 3.41 3.031 5.351 2.463 1.752 6.062 1.752 4.925 0 10.66-2.747l0.9945 2.652q-6.062 2.936-11.56 2.936-5.02 0-8.43-2.794-3.647-2.984-3.647-7.814zm3.126-2.178h17q-0.2841-2.605-2.628-4.262-2.344-1.658-5.564-1.658-3.315 0-5.636 1.421-2.51 1.563-3.173 4.499z"/><path id="path4767" d="m80.52 62.93v-2.841h4.073v-14.92h-4.073v-2.841h6.962v3.126q3.789-3.647 8.619-3.647 6.962 0 6.962 6.677v11.6h3.978v2.841h-10.89v-2.841h4.025v-9.992q0-2.652-0.8998-3.931-1.089-1.468-3.647-1.468-2.889 0-8.145 4.31v11.08h4.025v2.841z"/><path id="path4769" d="m110.3 56.82q0-3.362 3.078-5.541 2.747-1.989 6.251-1.989 5.493 0 7.956 0.6156v-1.373q0-4.215-5.778-4.215-3.883 0-8.193 1.989l-1.137-2.605q5.257-2.131 9.424-2.131 3.457 0 5.778 1.373 2.794 1.658 2.794 4.878v12.36h4.262v2.747h-7.151v-3.315q-3.931 4.025-9.377 4.025-3.173 0-5.446-1.8-2.463-1.942-2.463-5.02zm2.841 0.1421q0 1.705 1.942 2.841 1.705 0.9945 3.552 0.9945 2.51 0 5.067-1.563 2.321-1.421 3.883-3.599v-2.841q-5.162-0.6156-6.156-0.6156-8.288 0-8.288 4.783z"/><path id="path4771" d="m136.8 33.19 7.625-0.5209v12.46q3.268-3.41 7.956-3.41 4.594 0 7.79 3.197 3.197 3.197 3.197 7.79t-3.197 7.79-7.79 3.197q-4.688 0-7.956-3.41v2.652h-6.914v-2.841h4.073v-24.53l-4.594 0.3315zm7.435 19.42q0 3.41 2.368 5.801 2.368 2.392 5.778 2.392t5.801-2.392 2.392-5.801q0-3.362-2.415-5.754t-5.778-2.392q-3.41 0-5.778 2.392t-2.368 5.754z"/><path id="path4773" d="m165.6 62.93v-2.841h8.524v-14.92h-7.104v-2.841h9.945v17.76h8.524v2.841zm7.104-27.47q0-1.184 0.8288-2.013 0.8288-0.8288 2.013-0.8288 1.184 0 2.013 0.8288 0.8288 0.8288 0.8288 2.013 0 1.184-0.8288 2.013-0.8288 0.8288-2.013 0.8288-1.184 0-2.013-0.8288-0.8288-0.8288-0.8288-2.013z"/><path id="path4775" d="m188 62.93v-2.841h8.524v-24.48l-7.861 0.5209-0.2368-2.747 10.94-0.7104v27.42h8.524v2.841z"/><path id="path4777" d="m210.4 62.93v-2.841h8.524v-14.92h-7.104v-2.841h9.945v17.76h8.524v2.841zm7.104-27.47q0-1.184 0.8288-2.013 0.8288-0.8288 2.013-0.8288t2.013 0.8288 0.8288 2.013q0 1.184-0.8288 2.013-0.8288 0.8288-2.013 0.8288t-2.013-0.8288-0.8288-2.013z"/></g></svg>
